# xmcd
#
# Track frame offsets:
# 150
# 17304
# 43201
# 86173
# 114074
# 133635
# 153016
# 183759
# 210147
# 228437
# 241629
# 267494
#
# Disc length: 4112 seconds
#
# Revision: 8
# Processed by: cddbd v1.5.2PL0 Copyright (c) Steve Scherf et al.
# Submitted via: Axialis_AX_CDPlayer 2.6
#
DISCID=84100e0c
DTITLE=Enigma - Metamorphosis
DYEAR=1998
DGENRE=New Age
TTITLE0=IV Chapter (Mixed Fragment From Enigma 'MCMXC a.D.')
TTITLE1=Light Of Your Smile (From Enigma 'Beyond The Invisible' Single)
TTITLE2=Metamorphosis (From Culture Beat 'Metamorphosis')
TTITLE3=Start-To-End (From Software 'Heaven To Hell')
TTITLE4=Responsorium I
TTITLE5=Snow Of The Sahara (From Anggun 'Snow Of The Sahara')
TTITLE6=Sensing The Spheres (From Venja 'A Dash Of Soul')
TTITLE7=
TTITLE8=
TTITLE9=
TTITLE10=
TTITLE11=
EXTD=
EXTT0=
EXTT1=
EXTT2=
EXTT3=
EXTT4=
EXTT5=
EXTT6=
EXTT7=
EXTT8=
EXTT9=
EXTT10=
EXTT11=
PLAYORDER=
